<svg xmlns="http://www.w3.org/2000/svg" xmlns:xlink="http://www.w3.org/1999/xlink" width="120" zoomAndPan="magnify" viewBox="0 0 90 37.5" height="50" preserveAspectRatio="xMidYMid meet" version="1.0"><defs><g/><clipPath id="7c0a37190c"><path d="M 0.59375 0 L 89.40625 0 L 89.40625 37.007812 L 0.59375 37.007812 Z M 0.59375 0 " clip-rule="nonzero"/></clipPath><clipPath id="0b9c005ec4"><path d="M 2.074219 4 L 27.238281 4 L 27.238281 33.277344 L 2.074219 33.277344 Z M 2.074219 4 " clip-rule="nonzero"/></clipPath></defs><g clip-path="url(#7c0a37190c)"><path fill="#ffffff" d="M 0.59375 0 L 89.40625 0 L 89.40625 37.007812 L 0.59375 37.007812 Z M 0.59375 0 " fill-opacity="1" fill-rule="nonzero"/><path fill="#ffffff" d="M 0.59375 0 L 89.40625 0 L 89.40625 37.007812 L 0.59375 37.007812 Z M 0.59375 0 " fill-opacity="1" fill-rule="nonzero"/></g><g clip-path="url(#0b9c005ec4)"><path fill="#ea0e68" d="M 8.894531 24.109375 C 8.765625 23.546875 9.078125 22.972656 9.621094 22.785156 L 11.363281 22.167969 L 11.050781 21.289062 C 10.320312 19.222656 11.40625 16.949219 13.472656 16.222656 C 15.535156 15.496094 17.808594 16.582031 18.535156 18.644531 L 18.847656 19.527344 L 20.589844 18.910156 C 21.136719 18.71875 21.738281 18.96875 21.988281 19.484375 L 26.011719 27.765625 L 27.105469 14.152344 C 27.167969 13.363281 26.628906 12.652344 25.855469 12.5 L 23.378906 12.015625 L 23.625 10.757812 C 24.199219 7.8125 22.277344 4.953125 19.332031 4.375 C 16.386719 3.800781 13.527344 5.722656 12.949219 8.667969 L 12.703125 9.921875 L 10.230469 9.441406 C 9.453125 9.285156 8.683594 9.742188 8.445312 10.496094 L 2.375 29.683594 C 2.082031 30.601562 2.65625 31.566406 3.601562 31.753906 L 10.988281 33.203125 Z M 22.9375 14.296875 C 22.863281 14.671875 22.5 14.914062 22.125 14.839844 C 21.75 14.765625 21.503906 14.402344 21.578125 14.027344 C 21.652344 13.652344 22.015625 13.410156 22.390625 13.484375 C 22.761719 13.554688 23.011719 13.921875 22.9375 14.296875 Z M 14.320312 8.941406 C 14.75 6.75 16.875 5.320312 19.070312 5.746094 C 21.265625 6.171875 22.691406 8.304688 22.265625 10.496094 L 22.023438 11.753906 L 14.074219 10.195312 Z M 13.078125 11.65625 C 13.453125 11.730469 13.699219 12.09375 13.625 12.46875 C 13.550781 12.84375 13.1875 13.089844 12.8125 13.015625 C 12.4375 12.941406 12.191406 12.578125 12.265625 12.203125 C 12.335938 11.828125 12.699219 11.582031 13.078125 11.65625 Z M 13.078125 11.65625 " fill-opacity="1" fill-rule="nonzero"/></g><path fill="#ea0e68" d="M 17.582031 18.980469 C 17.042969 17.445312 15.347656 16.632812 13.808594 17.179688 C 12.273438 17.71875 11.457031 19.414062 12.003906 20.953125 L 12.316406 21.835938 L 17.894531 19.867188 Z M 17.582031 18.980469 " fill-opacity="1" fill-rule="nonzero"/><path fill="#ea0e68" d="M 12.230469 23.125 C 11.96875 23.214844 11.828125 23.503906 11.925781 23.773438 C 12.015625 24.035156 12.304688 24.175781 12.574219 24.078125 C 12.835938 23.988281 12.976562 23.699219 12.878906 23.429688 C 12.789062 23.171875 12.5 23.027344 12.230469 23.125 Z M 12.230469 23.125 " fill-opacity="1" fill-rule="nonzero"/><path fill="#ea0e68" d="M 19.105469 21.773438 C 19.367188 21.679688 19.507812 21.390625 19.414062 21.125 C 19.320312 20.863281 19.03125 20.71875 18.765625 20.816406 C 18.496094 20.914062 18.359375 21.199219 18.457031 21.464844 C 18.554688 21.726562 18.84375 21.867188 19.105469 21.773438 Z M 19.105469 21.773438 " fill-opacity="1" fill-rule="nonzero"/><g fill="#000000" fill-opacity="1"><g transform="translate(31.908922, 21.819187)"><g><path d="M 8.648438 -9.394531 C 8.246094 -7.53125 7.902344 0.660156 7.890625 0.675781 C 6.484375 -3.039062 5.394531 -6.125 3.929688 -9.035156 C 3.484375 -9.925781 2.941406 -10.226562 2.453125 -10.226562 C 1.734375 -10.226562 1.117188 -9.582031 1.003906 -9.179688 C 0.601562 -7.746094 0.386719 -5.234375 0.386719 -2.667969 C 0.386719 0.144531 0.644531 3.027344 1.160156 4.71875 C 1.332031 5.394531 1.808594 5.792969 2.28125 5.792969 C 2.652344 5.792969 3.039062 5.535156 3.300781 4.949219 C 3.957031 3.386719 4.03125 -4.746094 4.089844 -5.148438 C 4.53125 -4.804688 6.410156 3.214844 8.765625 3.472656 L 8.878906 3.472656 C 10.945312 3.472656 11.5625 -3.097656 11.5625 -6.941406 C 11.5625 -8.089844 11.503906 -9.007812 11.417969 -9.425781 C 11.246094 -10.253906 10.628906 -10.714844 10.011719 -10.714844 C 9.4375 -10.714844 8.851562 -10.296875 8.648438 -9.394531 Z M 8.648438 -9.394531 "/></g></g></g><g fill="#000000" fill-opacity="1"><g transform="translate(44.815572, 21.819187)"><g><path d="M 5.652344 4.617188 C 5.695312 4.617188 5.75 4.632812 5.792969 4.632812 C 6.554688 4.632812 6.957031 4 7.15625 3.226562 C 7.300781 2.625 7.832031 0.558594 7.832031 -1.507812 C 7.832031 -3.972656 7.085938 -6.453125 4.058594 -6.453125 L 3.816406 -6.453125 C 1.519531 -6.453125 0.34375 -5.121094 0.34375 -3.171875 C 0.34375 -3.070312 0.359375 -2.953125 0.359375 -2.855469 C 0.386719 -2.367188 0.816406 -2.09375 1.21875 -2.09375 C 1.578125 -2.09375 1.90625 -2.308594 1.90625 -2.796875 C 1.9375 -5.019531 3.039062 -5.722656 3.730469 -5.75 C 5.609375 -5.695312 5.351562 -3.027344 5.394531 -1.433594 L 5.394531 -1.378906 C 5.394531 -1.289062 5.378906 -1.246094 5.335938 -1.246094 C 5.191406 -1.246094 4.71875 -1.808594 3.558594 -1.808594 C 1.519531 -1.808594 0.414062 0.0273438 0.414062 1.492188 C 0.414062 1.765625 0.460938 2.007812 0.53125 2.238281 C 0.890625 3.371094 1.578125 4.375 3.269531 4.375 L 3.472656 4.375 C 4.761719 4.304688 5.050781 3.398438 5.136719 3.398438 C 5.136719 3.398438 5.148438 3.398438 5.148438 3.414062 C 5.179688 3.5 5.191406 3.585938 5.191406 3.671875 C 5.191406 3.902344 5.105469 4.101562 5.105469 4.273438 C 5.105469 4.460938 5.207031 4.574219 5.652344 4.617188 Z M 3.613281 3.558594 C 2.539062 3.527344 2.324219 2.4375 2.324219 1.5625 C 2.324219 1.074219 2.394531 0.644531 2.410156 0.546875 C 2.511719 -0.015625 2.855469 -0.960938 4.144531 -0.976562 C 4.691406 -0.976562 5.4375 -0.515625 5.4375 -0.34375 L 5.4375 0.371094 C 5.4375 0.6875 5.421875 1.175781 5.308594 2.222656 C 5.277344 2.539062 4.617188 3.558594 3.628906 3.558594 Z M 3.613281 3.558594 "/></g></g></g><g fill="#000000" fill-opacity="1"><g transform="translate(53.979452, 21.819187)"><g><path d="M 3.027344 0.285156 L 3.199219 0.445312 Z M 0.34375 3.140625 C 0.316406 3.199219 0.300781 3.257812 0.300781 3.3125 C 0.300781 3.644531 0.660156 4.101562 1.046875 4.101562 C 1.148438 4.101562 1.234375 4.074219 1.332031 4.015625 C 2.238281 3.441406 3.699219 1.707031 3.988281 1.347656 C 4.03125 1.277344 4.074219 1.246094 4.117188 1.246094 C 4.160156 1.246094 4.203125 1.277344 4.261719 1.347656 C 4.359375 1.519531 6.46875 3.902344 7.144531 4.117188 C 7.214844 4.132812 7.285156 4.144531 7.371094 4.144531 C 7.960938 4.144531 8.777344 3.65625 8.777344 3.285156 C 8.777344 3.242188 8.75 3.183594 8.722656 3.140625 C 7.875 2.007812 5.722656 -0.316406 5.636719 -0.515625 C 5.566406 -0.601562 5.535156 -0.675781 5.535156 -0.761719 C 5.535156 -0.832031 5.550781 -0.902344 5.609375 -0.988281 C 6.800781 -2.96875 7.617188 -5.75 7.617188 -5.765625 C 7.632812 -5.851562 7.644531 -5.9375 7.644531 -6.011719 C 7.644531 -6.496094 7.242188 -6.769531 6.929688 -6.769531 C 6.742188 -6.769531 6.582031 -6.683594 6.554688 -6.484375 C 6.382812 -5.40625 5.035156 -2.324219 4.71875 -1.777344 C 2.925781 -4.90625 2.824219 -5.148438 2.382812 -5.636719 C 2.09375 -5.953125 1.777344 -6.082031 1.476562 -6.082031 C 0.847656 -6.082031 0.285156 -5.464844 0.285156 -4.777344 C 0.285156 -4.589844 0.328125 -4.390625 0.414062 -4.203125 C 1.148438 -2.640625 2.136719 -1.246094 3.140625 0.128906 C 3.171875 0.1875 3.199219 0.214844 3.199219 0.273438 C 3.199219 0.300781 3.183594 0.328125 3.15625 0.371094 C 2.667969 1.089844 0.472656 2.910156 0.34375 3.140625 Z M 0.34375 3.140625 "/></g></g></g><g fill="#000000" fill-opacity="1"><g transform="translate(64.233178, 21.819187)"><g><path d="M 2.796875 5.019531 C 2.839844 4.804688 2.882812 4.71875 2.953125 4.71875 C 3.125 4.71875 3.472656 5.148438 4.476562 5.148438 L 4.503906 5.148438 C 6.699219 5.148438 7.902344 2.898438 8.019531 1.046875 C 8.03125 0.902344 8.03125 0.703125 8.03125 0.488281 C 8.03125 -0.945312 7.675781 -3.613281 4.847656 -3.613281 L 4.746094 -3.613281 C 3.671875 -3.585938 3.34375 -2.941406 3.269531 -2.941406 C 3.257812 -2.941406 3.257812 -2.96875 3.257812 -3.011719 C 3.269531 -4.03125 3.441406 -6.125 3.441406 -8.320312 C 3.441406 -8.835938 3.441406 -9.351562 3.414062 -9.867188 C 3.386719 -10.542969 2.839844 -10.929688 2.28125 -10.929688 C 1.777344 -10.929688 1.246094 -10.601562 1.117188 -9.867188 C 0.804688 -8.203125 0.472656 -5.4375 0.472656 -2.253906 C 0.472656 0.015625 0.644531 2.496094 1.117188 4.949219 C 1.203125 5.394531 1.5625 5.578125 1.921875 5.578125 C 2.324219 5.578125 2.726562 5.363281 2.796875 5.019531 Z M 3.199219 -1.820312 C 3.214844 -2.09375 3.84375 -2.539062 4.488281 -2.539062 C 4.761719 -2.539062 5.035156 -2.453125 5.265625 -2.265625 C 5.59375 -1.980469 5.808594 -0.859375 5.808594 0.371094 C 5.808594 2.136719 5.378906 4.132812 4.246094 4.203125 L 4.160156 4.203125 C 3.730469 4.203125 3.371094 4 3.011719 3.785156 C 2.953125 3.742188 2.941406 3.699219 2.941406 3.65625 C 2.941406 3.601562 2.953125 3.542969 2.953125 3.5 L 2.953125 3.269531 C 2.953125 2.996094 2.984375 2.652344 3.199219 -1.820312 Z M 3.199219 -1.820312 "/></g></g></g><g fill="#000000" fill-opacity="1"><g transform="translate(73.440086, 21.819187)"><g><path d="M 5.851562 -3.054688 C 5.910156 -3.257812 5.953125 -3.527344 5.953125 -3.84375 C 5.953125 -4.847656 5.535156 -6.226562 4.101562 -6.625 C 3.757812 -6.726562 3.429688 -6.769531 3.140625 -6.769531 C 0.847656 -6.769531 0.34375 -3.859375 0.285156 -1.203125 L 0.285156 -0.933594 C 0.285156 1.03125 1.132812 4.1875 3.214844 4.261719 L 3.285156 4.261719 C 4.917969 4.261719 6.082031 2.066406 6.082031 0.917969 C 6.082031 0.503906 5.9375 0.230469 5.609375 0.230469 C 5.222656 0.242188 5.207031 0.574219 5.164062 0.890625 C 5.007812 1.921875 4.703125 3.039062 3.601562 3.039062 C 3.558594 3.039062 3.5 3.027344 3.441406 3.027344 C 2.769531 2.953125 2.453125 2.382812 2.453125 0.15625 C 2.453125 -0.328125 2.46875 -0.902344 2.496094 -1.5625 C 3.15625 -1.664062 5.507812 -1.722656 5.851562 -3.054688 Z M 4 -5.652344 C 4.519531 -5.523438 4.949219 -4.632812 4.949219 -3.914062 C 4.949219 -3.484375 4.789062 -3.125 4.417969 -3.011719 C 3.988281 -2.882812 3.644531 -2.824219 3.371094 -2.824219 C 2.882812 -2.824219 2.640625 -2.984375 2.640625 -3.199219 L 2.640625 -3.269531 C 2.640625 -3.714844 2.824219 -5.679688 3.785156 -5.679688 C 3.859375 -5.679688 3.929688 -5.664062 4 -5.652344 Z M 4 -5.652344 "/></g></g></g><g fill="#000000" fill-opacity="1"><g transform="translate(80.797114, 21.819187)"><g><path d="M 7.761719 1.5625 C 7.761719 -0.746094 2.683594 -0.761719 2.339844 -3.285156 C 2.324219 -3.441406 2.308594 -3.644531 2.308594 -3.871094 C 2.308594 -4.875 2.582031 -6.296875 3.785156 -6.367188 L 3.859375 -6.367188 C 4.820312 -6.367188 5.105469 -5.292969 5.105469 -4.160156 C 5.105469 -3.742188 5.0625 -3.3125 5.007812 -2.925781 C 5.007812 -2.882812 4.992188 -2.839844 4.992188 -2.796875 C 4.992188 -2.339844 5.4375 -2.066406 5.925781 -2.066406 C 6.410156 -2.066406 6.941406 -2.324219 7.171875 -2.910156 C 7.402344 -3.398438 7.515625 -3.886719 7.515625 -4.359375 C 7.515625 -5.910156 6.324219 -7.242188 4.359375 -7.273438 L 4.230469 -7.273438 C 1.921875 -7.273438 0.515625 -5.808594 0.472656 -4.015625 L 0.472656 -3.914062 C 0.472656 -0.328125 5.664062 0.128906 5.664062 1.707031 C 5.664062 1.808594 5.652344 1.90625 5.609375 2.023438 C 5.4375 2.4375 4.917969 2.738281 4.246094 2.738281 L 4.203125 2.738281 C 3.257812 2.738281 2.296875 2.195312 1.777344 1.277344 C 1.605469 0.976562 1.378906 0.847656 1.148438 0.847656 C 0.6875 0.847656 0.242188 1.347656 0.242188 1.921875 C 0.242188 2.066406 0.273438 2.222656 0.34375 2.382812 C 0.847656 3.242188 2.121094 4.144531 4.175781 4.160156 L 4.21875 4.160156 C 6.082031 4.160156 7.761719 3.183594 7.761719 1.5625 Z M 7.761719 1.5625 "/></g></g></g></svg>